Coordinates
version=1
nRows=4
nColumns=63
inDegrees=yes

Units are S.I. units (second, meters, Newtons, ...)
If the header above contains a line with 'inDegrees', this indicates whether rotational values are in degrees (yes) or radians (no).

endheader
time	pelvis_tilt	pelvis_list	pelvis_rotation	pelvis_tx	pelvis_ty	pelvis_tz	hip_flexion_r	hip_adduction_r	hip_rotation_r	knee_angle_r	knee_angle_r_beta	ankle_angle_r	subtalar_angle_r	mtp_angle_r	hip_flexion_l	hip_adduction_l	hip_rotation_l	knee_angle_l	knee_angle_l_beta	ankle_angle_l	subtalar_angle_l	mtp_angle_l	L5_S1_Flex_Ext	L5_S1_Lat_Bending	L5_S1_axial_rotation	L4_L5_Flex_Ext	L4_L5_Lat_Bending	L4_L5_axial_rotation	L3_L4_Flex_Ext	L3_L4_Lat_Bending	L3_L4_axial_rotation	L2_L3_Flex_Ext	L2_L3_Lat_Bending	L2_L3_axial_rotation	L1_L2_Flex_Ext	L1_L2_Lat_Bending	L1_L2_axial_rotation	L1_T12_Flex_Ext	L1_T12_Lat_Bending	L1_T12_axial_rotation	Abs_r3	Abs_r2	Abs_r1	Abs_t1	Abs_t2	neck_flexion	neck_bending	neck_rotation	arm_flex_r	arm_add_r	arm_rot_r	elbow_flex_r	pro_sup_r	wrist_flex_r	wrist_dev_r	arm_flex_l	arm_add_l	arm_rot_l	elbow_flex_l	pro_sup_l	wrist_flex_l	wrist_dev_l
      2.68333333	     -7.43559743	    -12.21265538	     50.50816039	      0.27992597	      0.90301455	      0.67283820	     24.56625519	      0.02810364	     25.13155672	     17.82140545	      0.31104220	     40.12880846	     16.59393149	      0.00000000	     16.04023574	      1.30658302	    -20.68692239	     14.55293815	      0.25399669	     34.33913725	    -12.95680447	      0.00000000	      0.12400564	      0.12902925	     -2.34453109	      0.23029088	      0.17160891	     -2.49106428	      0.20372887	      0.31372173	     -2.49106428	      0.14172605	      0.31372173	     -2.05146470	      0.11515164	      0.26311645	     -1.90493151	      0.07085682	      0.19986631	     -1.75839832	      0.88575990	      1.45960472	    -13.03957855	      0.00000000	      0.00000000	     19.34778072	      0.54611655	     12.47613366	     47.20110352	     11.51841072	      0.05357178	     59.59119235	     86.76880755	    -12.77752567	     13.94734146	     57.27258272	     -9.44640379	     41.54552419	     63.74323708	     64.97959651	     -4.59594329	     12.54924346
      2.70000000	     -7.49229148	    -12.00961902	     50.65546791	      0.27970187	      0.90379330	      0.67276724	     24.27695104	     -0.26792583	     25.11044975	     17.46388926	      0.30480237	     40.13978886	     16.58686087	      0.00000000	     15.86738383	      1.53501709	    -20.75775037	     14.37686678	      0.25092366	     34.26109541	    -12.69154738	      0.00000000	      0.11427591	      0.09771102	     -2.22796884	      0.21222180	      0.12995566	     -2.36721689	      0.18774390	      0.23757458	     -2.36721689	      0.13060594	      0.23757458	     -1.94947273	      0.10611661	      0.19925231	     -1.81022468	      0.06529726	      0.15135437	     -1.67097663	      0.81626141	      1.10532661	    -12.39129429	      0.00000000	      0.00000000	     19.01056406	      0.63872823	     11.52831591	     44.17565480	     10.09576199	      1.41530837	     65.51823715	     86.63384888	    -12.71502416	     12.58135014	     54.87567834	     -9.60249939	     39.18053476	     68.00288178	     65.28159082	     -5.17104080	     11.89606809
      2.71666667	     -7.40035933	    -12.02552009	     50.45510535	      0.27986151	      0.90409988	      0.67265485	     24.06681264	     -0.17450404	     25.35948518	     17.16182465	      0.29953035	     39.97103517	     16.36363288	      0.00000000	     15.74075184	      1.36479591	    -21.35359847	     14.37074052	      0.25081674	     34.36739411	    -11.95434879	      0.00000000	      0.11326407	      0.09814599	     -2.09125970	      0.21034271	      0.13053416	     -2.22196343	      0.18608154	      0.23863215	     -2.22196343	      0.12944951	      0.23863215	     -1.82985224	      0.10517702	      0.20013930	     -1.69914851	      0.06471909	      0.15202813	     -1.56844478	      0.80903394	      1.11024704	    -11.63095908	      0.00000000	      0.00000000	     18.78043228	      0.14826952	     10.13783919	     42.08346361	      8.07090906	      4.38353680	     69.79631434	     86.16434102	    -15.86520037	     11.08194799	     52.30424456	     -9.26179803	     36.18968210	     71.76302590	     66.93460402	     -7.40596199	     13.72234194
      2.73333333	     -7.42780970	    -11.95548631	     50.55684937	      0.27975607	      0.90403011	      0.67255999	     23.92418979	     -0.35729796	     25.19143252	     17.03719299	      0.29735511	     39.90046584	     16.30719558	      0.00000000	     15.63823614	      1.47281081	    -21.30287007	     14.40970889	      0.25149686	     34.09053063	    -11.74920992	      0.00000000	      0.11027509	      0.08208079	     -2.04092307	      0.20479188	      0.10916746	     -2.16848076	      0.18117095	      0.19957124	     -2.16848076	      0.12603340	      0.19957124	     -1.78580769	      0.10240145	      0.16737916	     -1.65825000	      0.06301119	      0.12714315	     -1.53069230	      0.78768396	      0.92851436	    -11.35100185	      0.00000000	      0.00000000	     18.60360036	      0.31669367	      9.56668177	     40.91373208	      6.99631058	      5.44478930	     71.85741010	     86.40290154	    -15.68061445	     10.41263343	     50.77464892	     -9.07696927	     34.54216558	     73.35266837	     66.41645803	     -7.68602301	     13.32045102
